<svg id="svg" version="1.1" xmlns="http://www.w3.org/2000/svg" xmlns:xlink="http://www.w3.org/1999/xlink" width="400" height="457.14285714285717" viewBox="0, 0, 400,457.14285714285717"><g id="svgg"><path id="path0" d="M228.255 57.800 C 228.053 58.328,223.058 58.400,186.641 58.400 C 149.553 58.400,145.192 58.465,144.629 59.029 C 143.808 59.850,143.669 83.909,144.480 84.720 C 144.847 85.087,154.671 85.200,186.257 85.200 L 227.555 85.200 228.160 86.064 C 228.691 86.822,228.847 86.859,229.443 86.364 C 230.587 85.414,255.446 85.546,256.917 86.509 L 258.000 87.218 257.987 228.509 C 257.977 338.944,257.868 369.939,257.487 370.435 C 256.269 372.022,257.063 372.000,200.102 372.000 C 145.153 372.000,144.948 371.997,144.075 371.184 C 143.077 370.254,142.655 343.584,143.629 342.982 C 143.898 342.816,143.748 342.499,143.229 342.136 L 142.400 341.555 142.400 214.657 C 142.400 116.493,142.291 87.651,141.920 87.280 C 141.181 86.541,87.872 86.591,87.257 87.331 C 86.948 87.704,86.784 96.053,86.708 115.311 C 86.622 137.172,86.494 142.866,86.081 143.280 C 85.681 143.680,82.630 143.826,72.881 143.911 C 64.386 143.986,59.903 144.173,59.300 144.479 L 58.400 144.935 58.400 228.439 L 58.400 311.942 59.454 312.771 C 60.470 313.570,60.965 313.600,73.215 313.600 L 85.922 313.600 86.361 314.860 C 86.663 315.725,86.800 324.374,86.800 342.486 C 86.800 359.896,86.941 369.115,87.214 369.626 C 87.610 370.367,88.184 370.400,100.544 370.400 L 113.461 370.400 114.430 371.432 L 115.400 372.463 115.516 385.498 C 115.608 395.805,115.524 398.602,115.116 398.860 C 114.832 399.040,120.684 399.191,128.120 399.194 C 139.448 399.199,141.831 399.299,142.820 399.810 L 144.000 400.421 144.000 413.321 C 144.000 424.350,144.090 426.351,144.623 427.111 L 145.245 428.000 186.380 428.000 C 223.520 428.000,227.538 427.939,227.757 427.367 C 227.891 427.019,228.000 420.934,228.000 413.844 C 228.000 403.343,228.105 400.809,228.568 400.176 C 229.118 399.424,230.001 399.394,257.068 399.200 L 285.000 399.000 285.200 385.761 C 285.357 375.356,285.518 372.380,285.949 371.861 C 286.438 371.272,287.885 371.199,299.149 371.187 C 311.363 371.174,311.835 371.145,312.800 370.342 L 313.800 369.510 314.000 342.520 L 314.200 315.529 315.144 314.764 C 316.030 314.047,316.885 314.000,328.992 314.000 L 341.895 314.000 342.143 312.500 C 342.463 310.566,342.467 146.093,342.148 144.900 L 341.907 144.000 329.176 144.000 L 316.445 144.000 315.322 143.035 L 314.200 142.070 314.089 114.894 L 313.979 87.719 312.970 87.259 C 312.279 86.944,307.946 86.800,299.161 86.800 L 286.359 86.800 285.780 85.413 C 285.317 84.306,285.199 81.576,285.195 71.913 C 285.192 65.251,285.081 59.395,284.948 58.900 L 284.707 58.000 257.177 58.000 C 239.255 58.000,229.561 57.860,229.400 57.600 C 229.041 57.019,228.520 57.110,228.255 57.800 M201.142 115.200 C 175.264 115.391,174.047 115.433,173.243 116.161 L 172.403 116.921 172.301 229.461 L 172.200 342.000 200.097 342.000 L 227.993 342.000 228.097 228.500 C 228.153 166.075,228.200 115.000,228.200 115.000 C 228.200 115.000,216.024 115.090,201.142 115.200 " stroke="none" fill="#fbc408" fill-rule="evenodd"></path><path id="path1" d="M144.300 29.646 L 143.200 30.467 143.200 43.384 C 143.200 54.910,143.129 56.361,142.539 56.851 C 141.998 57.300,136.905 57.436,114.559 57.600 C 92.906 57.759,87.132 57.908,86.720 58.319 C 86.323 58.715,86.152 61.918,86.000 71.800 C 85.848 81.675,85.676 84.885,85.281 85.281 C 84.885 85.676,81.664 85.848,71.748 86.000 C 59.453 86.189,58.703 86.243,58.167 86.976 C 57.691 87.629,57.600 92.092,57.600 114.854 L 57.600 141.955 56.711 142.577 C 55.952 143.109,53.970 143.200,43.134 143.200 C 30.475 143.200,30.444 143.202,29.823 144.089 C 29.264 144.887,29.200 153.585,29.200 228.835 L 29.200 312.692 30.029 313.746 L 30.858 314.800 43.986 314.800 C 55.588 314.800,57.143 314.874,57.357 315.433 C 57.491 315.781,57.621 327.976,57.647 342.533 C 57.673 357.090,57.810 369.540,57.951 370.200 L 58.207 371.400 71.536 371.600 C 84.144 371.789,84.896 371.842,85.433 372.576 C 85.894 373.208,86.000 375.715,86.000 386.012 L 86.000 398.672 87.019 399.136 C 88.457 399.791,113.156 399.785,114.596 399.129 L 115.631 398.658 115.515 385.561 L 115.400 372.463 114.430 371.432 L 113.461 370.400 100.544 370.400 C 88.184 370.400,87.610 370.367,87.214 369.626 C 86.941 369.115,86.800 359.896,86.800 342.486 C 86.800 324.374,86.663 315.725,86.361 314.860 L 85.922 313.600 73.215 313.600 C 60.965 313.600,60.470 313.570,59.454 312.771 L 58.400 311.942 58.400 228.439 L 58.400 144.935 59.300 144.479 C 59.903 144.173,64.386 143.986,72.881 143.911 C 82.630 143.826,85.681 143.680,86.081 143.280 C 86.494 142.866,86.622 137.172,86.708 115.311 C 86.784 96.053,86.948 87.704,87.257 87.331 C 87.872 86.591,141.181 86.541,141.920 87.280 C 142.291 87.651,142.400 116.480,142.400 214.600 C 142.400 312.720,142.509 341.549,142.880 341.920 C 143.568 342.608,171.232 342.608,171.920 341.920 C 172.291 341.549,172.400 315.960,172.400 229.182 L 172.400 116.924 173.242 116.162 C 174.047 115.433,175.248 115.391,201.124 115.200 L 228.164 115.000 228.442 114.000 C 229.073 111.733,228.838 87.033,228.177 86.089 L 227.555 85.200 186.257 85.200 C 154.671 85.200,144.847 85.087,144.480 84.720 C 143.669 83.909,143.808 59.850,144.629 59.029 C 145.192 58.465,149.550 58.400,186.614 58.400 C 227.094 58.400,227.981 58.384,228.386 57.626 C 229.172 56.158,228.928 31.339,228.114 29.962 L 227.428 28.800 186.414 28.813 C 145.689 28.825,145.392 28.831,144.300 29.646 " stroke="none" fill="#f8f4eb" fill-rule="evenodd"></path><path id="path2" d="M113.200 13.197 L 113.200 26.395 84.700 26.497 L 56.200 26.600 56.095 41.300 L 55.990 56.000 41.828 56.000 C 34.038 56.000,27.381 56.109,27.033 56.243 C 26.464 56.461,26.400 59.354,26.400 84.843 L 26.400 113.200 13.200 113.200 L 0.000 113.200 0.000 229.400 L 0.000 345.600 13.200 345.600 L 26.400 345.600 26.400 373.200 L 26.400 400.800 41.200 400.800 L 56.000 400.800 56.000 415.600 L 56.000 430.400 84.600 430.400 L 113.200 430.400 113.200 443.600 L 113.200 456.800 201.000 456.800 L 288.800 456.800 288.800 443.600 L 288.800 430.400 316.400 430.400 L 344.000 430.400 344.000 402.005 L 344.000 373.610 358.700 373.505 L 373.400 373.400 373.503 344.900 L 373.605 316.400 386.803 316.400 L 400.000 316.400 400.000 228.600 L 400.000 140.800 386.800 140.800 L 373.600 140.800 373.600 112.200 L 373.600 83.600 358.800 83.600 L 344.000 83.600 344.000 55.000 L 344.000 26.400 316.400 26.400 L 288.800 26.400 288.800 13.200 L 288.800 0.000 201.000 0.000 L 113.200 0.000 113.200 13.197 M228.584 27.449 C 230.558 28.207,230.800 29.937,230.800 43.304 C 230.800 52.521,230.927 55.967,231.280 56.320 C 231.644 56.684,238.265 56.800,258.631 56.800 C 283.127 56.800,285.551 56.858,286.051 57.461 C 286.485 57.984,286.626 60.824,286.725 71.059 C 286.850 83.993,286.850 83.997,287.725 84.194 C 288.206 84.302,294.270 84.442,301.200 84.506 C 313.911 84.622,314.869 84.717,315.469 85.931 C 315.651 86.299,315.890 98.930,316.000 114.000 L 316.200 141.400 329.398 141.600 L 342.597 141.800 343.102 143.343 C 343.877 145.710,343.635 313.994,342.856 314.933 C 342.375 315.513,340.786 315.601,329.256 315.695 L 316.200 315.800 316.000 343.486 C 315.813 369.370,315.754 371.218,315.086 371.886 C 314.438 372.534,313.106 372.621,300.686 372.830 C 293.159 372.956,286.955 373.091,286.900 373.130 C 286.845 373.168,286.800 378.926,286.800 385.924 C 286.800 396.279,286.694 398.792,286.232 399.424 C 285.683 400.176,284.795 400.207,257.932 400.409 C 242.680 400.525,230.155 400.660,230.100 400.709 C 230.045 400.759,229.998 406.425,229.996 413.300 C 229.990 427.888,229.917 428.616,228.365 429.418 C 226.976 430.136,146.899 430.301,144.343 429.591 C 141.755 428.872,141.820 429.233,141.600 414.239 L 141.400 400.600 113.268 400.400 C 86.003 400.206,85.118 400.176,84.568 399.424 C 84.106 398.792,84.000 396.282,84.000 385.939 L 84.000 373.231 70.964 373.116 L 57.928 373.000 57.164 372.056 C 56.428 371.147,56.400 370.086,56.400 343.580 L 56.400 316.048 42.641 315.924 C 29.755 315.808,28.829 315.752,28.039 315.036 L 27.195 314.271 27.297 228.550 C 27.395 146.889,27.434 142.795,28.114 142.114 C 28.767 141.461,30.003 141.390,42.614 141.285 L 56.400 141.170 56.400 114.172 C 56.400 83.304,56.260 84.692,59.410 84.261 C 60.456 84.117,66.405 84.000,72.631 84.000 L 83.950 84.000 84.075 71.014 C 84.189 59.181,84.263 57.964,84.914 57.314 C 85.583 56.645,87.368 56.593,113.414 56.487 L 141.200 56.374 141.202 43.687 C 141.205 30.242,141.422 28.209,142.925 27.603 C 143.906 27.208,227.564 27.058,228.584 27.449 M231.260 87.728 C 230.544 88.590,230.399 107.587,230.189 228.275 L 229.990 341.949 228.941 342.775 C 227.897 343.596,227.708 343.600,186.610 343.600 L 145.328 343.600 144.864 344.619 C 144.198 346.080,144.213 368.853,144.880 369.520 C 145.518 370.158,254.037 370.223,255.226 369.586 C 256.186 369.072,256.478 88.638,255.520 87.680 C 254.793 86.953,231.865 86.998,231.260 87.728 " stroke="none" fill="#040404" fill-rule="evenodd"></path><path id="path3" d="M142.925 27.603 C 141.422 28.209,141.205 30.242,141.202 43.687 L 141.200 56.374 113.414 56.487 C 87.368 56.593,85.583 56.645,84.914 57.314 C 84.263 57.964,84.189 59.181,84.075 71.014 L 83.950 84.000 72.631 84.000 C 66.405 84.000,60.456 84.117,59.410 84.261 C 56.260 84.692,56.400 83.304,56.400 114.172 L 56.400 141.170 42.614 141.285 C 30.003 141.390,28.767 141.461,28.114 142.114 C 27.434 142.795,27.395 146.889,27.297 228.550 L 27.195 314.271 28.039 315.036 C 28.829 315.752,29.755 315.808,42.641 315.924 L 56.400 316.048 56.400 343.580 C 56.400 370.086,56.428 371.147,57.164 372.056 L 57.928 373.000 70.964 373.116 L 84.000 373.231 84.000 386.016 C 84.000 398.267,84.033 398.833,84.800 399.600 C 85.586 400.386,86.074 400.399,113.300 400.313 C 136.291 400.241,138.756 400.185,127.800 399.984 C 120.540 399.851,108.633 399.714,101.339 399.680 C 92.098 399.637,87.764 399.475,87.039 399.145 L 86.000 398.672 86.000 386.012 C 86.000 375.715,85.894 373.208,85.433 372.576 C 84.896 371.842,84.144 371.789,71.536 371.600 L 58.207 371.400 57.951 370.200 C 57.810 369.540,57.673 357.090,57.647 342.533 C 57.621 327.976,57.491 315.781,57.357 315.433 C 57.143 314.874,55.588 314.800,43.986 314.800 L 30.858 314.800 30.029 313.746 L 29.200 312.692 29.200 228.835 C 29.200 153.585,29.264 144.887,29.823 144.089 C 30.444 143.202,30.475 143.200,43.134 143.200 C 53.970 143.200,55.952 143.109,56.711 142.577 L 57.600 141.955 57.600 114.854 C 57.600 92.092,57.691 87.629,58.167 86.976 C 58.703 86.243,59.453 86.189,71.748 86.000 C 81.664 85.848,84.885 85.676,85.281 85.281 C 85.676 84.885,85.848 81.675,86.000 71.800 C 86.152 61.918,86.323 58.715,86.720 58.319 C 87.132 57.908,92.906 57.759,114.559 57.600 C 136.905 57.436,141.998 57.300,142.539 56.851 C 143.129 56.361,143.200 54.909,143.200 43.378 L 143.200 30.454 144.362 29.627 C 145.518 28.804,145.715 28.800,186.476 28.800 L 227.428 28.800 228.114 29.962 C 228.724 30.994,228.800 32.551,228.800 43.962 L 228.800 56.800 230.280 56.800 C 231.431 56.800,231.653 56.693,231.280 56.320 C 230.927 55.967,230.800 52.521,230.800 43.304 C 230.800 29.937,230.558 28.207,228.584 27.449 C 227.564 27.058,143.906 27.208,142.925 27.603 M286.578 71.600 C 286.578 78.310,286.632 81.055,286.699 77.700 C 286.766 74.345,286.766 68.855,286.699 65.500 C 286.632 62.145,286.578 64.890,286.578 71.600 M287.337 84.494 C 287.592 84.656,293.380 84.753,300.200 84.712 C 307.020 84.670,311.070 84.584,309.200 84.521 C 300.940 84.244,286.915 84.226,287.337 84.494 M313.909 85.216 C 314.410 85.417,314.983 85.990,315.184 86.491 C 315.443 87.135,315.557 87.204,315.575 86.729 C 315.607 85.864,314.536 84.793,313.671 84.825 C 313.196 84.843,313.265 84.957,313.909 85.216 M228.715 100.700 C 228.629 110.858,228.723 114.448,229.098 115.200 C 230.005 117.025,229.810 341.487,228.900 342.569 C 228.201 343.398,228.202 343.399,229.095 342.642 L 229.990 341.885 230.189 228.242 C 230.399 107.586,230.544 88.590,231.260 87.728 C 231.609 87.307,231.406 87.200,230.264 87.200 L 228.831 87.200 228.715 100.700 M315.789 114.200 C 315.789 128.940,315.839 134.912,315.900 127.471 C 315.961 120.030,315.961 107.970,315.900 100.671 C 315.839 93.372,315.789 99.460,315.789 114.200 M316.262 141.700 C 316.364 141.865,322.274 142.000,329.397 142.000 C 342.152 142.000,342.350 142.012,342.610 142.830 C 342.754 143.287,342.961 143.572,343.069 143.464 C 343.177 143.357,343.066 142.898,342.824 142.445 C 342.395 141.642,342.043 141.618,329.230 141.511 C 321.995 141.450,316.159 141.535,316.262 141.700 M343.396 228.800 C 343.396 275.330,343.443 294.365,343.500 271.100 C 343.557 247.835,343.557 209.765,343.500 186.500 C 343.443 163.235,343.396 182.270,343.396 228.800 M342.600 314.800 C 342.443 315.053,337.623 315.200,329.456 315.200 C 319.959 315.200,316.433 315.327,316.080 315.680 C 315.714 316.046,315.623 322.545,315.696 342.980 L 315.792 369.800 315.996 342.800 L 316.200 315.800 329.256 315.695 C 340.229 315.606,342.390 315.494,342.804 314.995 C 343.076 314.668,343.197 314.400,343.073 314.400 C 342.949 314.400,342.736 314.580,342.600 314.800 M144.427 343.900 C 144.452 345.272,144.491 345.323,144.888 344.500 L 145.322 343.600 186.761 343.503 C 220.366 343.424,222.948 343.386,200.417 343.300 C 182.702 343.233,172.491 343.051,172.237 342.797 C 171.990 342.550,166.670 342.400,158.120 342.400 L 144.400 342.400 144.427 343.900 M315.232 370.913 C 315.214 371.305,314.795 371.789,314.300 371.988 C 313.691 372.232,313.610 372.357,314.051 372.375 C 314.874 372.407,315.741 371.390,315.469 370.713 C 315.342 370.396,315.251 370.472,315.232 370.913 M287.300 372.812 L 286.400 373.174 286.494 386.087 L 286.589 399.000 286.700 386.100 C 286.761 379.005,286.854 373.164,286.906 373.120 C 286.957 373.075,292.760 372.934,299.800 372.806 L 312.600 372.573 300.400 372.512 C 293.690 372.478,287.795 372.613,287.300 372.812 M244.929 400.300 C 252.370 400.361,264.430 400.361,271.729 400.300 C 279.028 400.239,272.940 400.189,258.200 400.189 C 243.460 400.189,237.488 400.239,244.929 400.300 M141.600 413.720 L 141.799 427.000 141.905 414.026 C 141.964 406.890,141.874 400.914,141.706 400.745 C 141.538 400.577,141.490 406.415,141.600 413.720 M229.782 400.903 C 229.675 401.180,229.639 407.165,229.700 414.203 L 229.812 427.000 229.906 413.933 C 229.978 403.926,230.117 400.819,230.500 400.665 C 230.892 400.507,230.889 400.456,230.487 400.432 C 230.206 400.414,229.888 400.627,229.782 400.903 M142.025 427.691 C 141.946 429.860,140.586 429.791,185.688 429.907 C 230.231 430.022,229.685 430.045,229.554 428.090 C 229.514 427.497,229.483 427.490,229.335 428.044 C 228.925 429.579,228.341 429.600,186.481 429.598 C 143.977 429.595,143.082 429.560,142.403 427.875 C 142.132 427.202,142.045 427.159,142.025 427.691 " stroke="none" fill="#545454" fill-rule="evenodd"></path><path id="path4" d="M229.200 57.400 C 229.634 57.923,233.242 58.000,257.202 58.000 L 284.707 58.000 284.948 58.900 C 285.081 59.395,285.192 65.251,285.195 71.913 C 285.199 81.576,285.317 84.306,285.780 85.413 L 286.359 86.800 299.161 86.800 C 307.946 86.800,312.279 86.944,312.970 87.259 L 313.979 87.719 314.089 114.894 L 314.200 142.070 315.322 143.035 L 316.445 144.000 329.176 144.000 L 341.907 144.000 342.148 144.900 C 342.467 146.093,342.463 310.566,342.143 312.500 L 341.895 314.000 328.992 314.000 C 316.885 314.000,316.030 314.047,315.144 314.764 L 314.200 315.529 314.000 342.520 L 313.800 369.510 312.800 370.342 C 311.835 371.145,311.363 371.174,299.149 371.187 C 287.885 371.199,286.438 371.272,285.949 371.861 C 285.518 372.380,285.357 375.356,285.200 385.761 L 285.000 399.000 257.068 399.200 C 230.001 399.394,229.118 399.424,228.568 400.176 C 228.105 400.809,228.000 403.343,228.000 413.844 C 228.000 420.934,227.891 427.019,227.757 427.367 C 227.538 427.939,223.520 428.000,186.380 428.000 L 145.245 428.000 144.623 427.111 C 144.090 426.351,144.000 424.350,144.000 413.321 L 144.000 400.421 142.820 399.810 C 141.826 399.296,139.475 399.204,127.920 399.228 C 119.888 399.245,114.532 399.399,115.000 399.600 C 115.440 399.789,121.347 399.956,128.126 399.972 C 135.803 399.989,140.744 400.156,141.226 400.414 C 141.967 400.810,142.000 401.384,142.000 413.788 C 142.000 421.028,142.168 427.190,142.381 427.750 C 143.077 429.581,143.424 429.595,186.526 429.598 C 225.778 429.600,228.047 429.542,229.200 428.513 C 229.310 428.415,229.490 422.102,229.600 414.485 L 229.800 400.635 230.800 400.358 C 231.350 400.205,243.869 400.062,258.620 400.040 C 278.902 400.010,285.557 399.883,285.920 399.520 C 286.273 399.167,286.400 395.641,286.400 386.144 C 286.400 376.266,286.517 373.171,286.900 372.924 C 287.175 372.746,293.466 372.510,300.881 372.400 C 311.191 372.247,314.484 372.078,314.881 371.680 C 315.294 371.266,315.422 365.566,315.508 343.711 C 315.584 324.453,315.748 316.104,316.057 315.731 C 316.407 315.310,319.158 315.200,329.369 315.200 C 338.846 315.200,342.367 315.073,342.720 314.720 C 343.404 314.036,343.419 144.519,342.736 143.019 L 342.272 142.000 329.359 142.000 C 319.469 142.000,316.371 141.883,316.124 141.500 C 315.946 141.225,315.710 128.721,315.600 113.714 C 315.413 88.217,315.353 86.381,314.686 85.714 C 314.038 85.066,312.742 84.982,300.571 84.800 C 289.244 84.631,287.111 84.507,286.791 84.000 C 286.574 83.656,286.410 78.000,286.406 70.723 C 286.400 58.079,286.398 58.044,285.511 57.423 C 284.183 56.492,228.428 56.470,229.200 57.400 M231.000 85.885 C 226.134 86.640,229.290 87.009,242.238 87.200 L 255.800 87.400 255.800 228.600 L 255.800 369.800 200.200 369.800 L 144.600 369.800 144.495 356.055 C 144.402 343.946,144.319 342.370,143.795 342.804 C 142.672 343.736,142.933 370.120,144.075 371.184 C 144.948 371.997,145.153 372.000,200.102 372.000 C 257.063 372.000,256.269 372.022,257.487 370.435 C 257.868 369.939,257.977 338.944,257.987 228.509 L 258.000 87.218 256.919 86.509 C 255.858 85.814,234.738 85.305,231.000 85.885 M228.257 116.233 C 228.116 117.266,228.000 168.487,228.000 230.056 L 228.000 342.000 199.751 342.000 C 174.686 342.000,171.558 342.068,172.000 342.600 C 172.849 343.623,228.011 343.493,228.940 342.466 C 229.769 341.550,229.786 115.626,228.957 114.797 C 228.634 114.474,228.446 114.861,228.257 116.233 " stroke="none" fill="#997404" fill-rule="evenodd"></path></g></svg>